<svg xmlns="http://www.w3.org/2000/svg" xmlns:xlink="http://www.w3.org/1999/xlink" viewBox="0 0 647 557"><defs><clipPath id="a"><rect x="1244.825" y="872.597" width="1137" height="281.509" rx="4" ry="4" fill="none"/></clipPath><radialGradient id="b" cx="1072.348" cy="740.931" r="445.666" gradientUnits="userSpaceOnUse"><stop offset="0" stop-color="#08a9ae"/><stop offset="1" stop-color="#08a9ae" stop-opacity="0"/></radialGradient><clipPath id="c"><rect width="647" height="557" fill="none"/></clipPath><clipPath id="d"><path d="M586.6,114.887a28.465,28.465,0,0,1,8.729,20.809l.73,223.939A29.443,29.443,0,0,1,566.663,389.1H271.75a29.684,29.684,0,0,1-29.589-29.461L241.43,135.7a29.451,29.451,0,0,1,29.4-29.463H565.74A28.515,28.515,0,0,1,586.6,114.887ZM572.462,359.635l-.73-223.939a6,6,0,0,0-5.915-5.892H270.9a5.951,5.951,0,0,0-5.881,5.892l.73,223.939a6,6,0,0,0,5.919,5.892H566.586a5.948,5.948,0,0,0,5.876-5.892" fill="none" stroke="#000" stroke-miterlimit="10" stroke-width="0.25"/></clipPath><clipPath id="e"><path d="M668.635,197.39a28.465,28.465,0,0,1,8.729,20.809l.73,223.939A29.443,29.443,0,0,1,648.7,471.6H353.789A29.684,29.684,0,0,1,324.2,442.137l-.73-223.939a29.451,29.451,0,0,1,29.4-29.463H647.779A28.515,28.515,0,0,1,668.635,197.39ZM654.5,442.137l-.73-223.939a6,6,0,0,0-5.915-5.892H352.943a5.951,5.951,0,0,0-5.881,5.892l.73,223.939a6,6,0,0,0,5.919,5.892H648.625a5.948,5.948,0,0,0,5.876-5.892" fill="none" stroke="#000" stroke-miterlimit="10" stroke-width="0.25"/></clipPath><clipPath id="f"><path d="M668.635,197.39a28.465,28.465,0,0,1,8.729,20.809l-82.039-82.5a28.465,28.465,0,0,0-8.729-20.809C611.208,139.638,643.968,172.694,668.635,197.39Z" fill="none" stroke="#000" stroke-miterlimit="10" stroke-width="0.25"/></clipPath><clipPath id="g"><polygon points="677.364 218.199 678.094 442.137 596.055 359.635 595.325 135.696 677.364 218.199" fill="none" stroke="#000" stroke-miterlimit="10" stroke-width="0.25"/></clipPath><clipPath id="h"><path d="M678.094,442.137A29.443,29.443,0,0,1,648.7,471.6l-82.039-82.5a29.443,29.443,0,0,0,29.393-29.461Z" fill="none" stroke="#000" stroke-miterlimit="10" stroke-width="0.25"/></clipPath><clipPath id="i"><polygon points="648.701 471.599 353.789 471.599 271.75 389.096 566.663 389.096 648.701 471.599" fill="none" stroke="#000" stroke-miterlimit="10" stroke-width="0.25"/></clipPath><clipPath id="j"><path d="M353.789,471.6a28.5,28.5,0,0,1-20.856-8.654l-82.039-82.5A28.5,28.5,0,0,0,271.75,389.1Z" fill="none" stroke="#000" stroke-miterlimit="10" stroke-width="0.25"/></clipPath><clipPath id="k"><path d="M332.933,462.945l-82.039-82.5a28.446,28.446,0,0,1-8.734-20.808l82.039,82.5A28.446,28.446,0,0,0,332.933,462.945Z" fill="none" stroke="#000" stroke-miterlimit="10" stroke-width="0.25"/></clipPath><clipPath id="l"><polygon points="324.199 442.137 242.16 359.635 241.43 135.696 323.469 218.199 324.199 442.137" fill="none" stroke="#000" stroke-miterlimit="10" stroke-width="0.25"/></clipPath><clipPath id="m"><path d="M323.469,218.2,241.43,135.7a29.451,29.451,0,0,1,29.4-29.463l82.039,82.5a29.451,29.451,0,0,0-29.4,29.463Z" fill="none" stroke="#000" stroke-miterlimit="10" stroke-width="0.25"/></clipPath><clipPath id="n"><polygon points="352.866 188.736 270.827 106.233 565.74 106.233 647.779 188.736 352.866 188.736" fill="none" stroke="#000" stroke-miterlimit="10" stroke-width="0.25"/></clipPath><clipPath id="o"><path d="M647.779,188.736l-82.039-82.5a28.515,28.515,0,0,1,20.856,8.654l82.039,82.5A28.515,28.515,0,0,0,647.779,188.736Z" fill="none" stroke="#000" stroke-miterlimit="10" stroke-width="0.25"/></clipPath><clipPath id="p"><polygon points="654.501 442.137 572.462 359.635 571.732 135.696 653.771 218.199 654.501 442.137" fill="none" stroke="#000" stroke-miterlimit="10" stroke-width="0.25"/></clipPath><clipPath id="q"><path d="M653.771,218.2l-82.039-82.5a5.694,5.694,0,0,0-1.762-4.143l82.039,82.5A5.694,5.694,0,0,1,653.771,218.2Z" fill="none" stroke="#000" stroke-miterlimit="10" stroke-width="0.25"/></clipPath><clipPath id="r"><path d="M652.009,214.055a5.708,5.708,0,0,0-4.153-1.749l-82.039-82.5a5.708,5.708,0,0,1,4.153,1.749Z" fill="none" stroke="#000" stroke-miterlimit="10" stroke-width="0.25"/></clipPath><clipPath id="s"><polygon points="647.856 212.307 352.943 212.307 270.904 129.804 565.817 129.804 647.856 212.307" fill="none" stroke="#000" stroke-miterlimit="10" stroke-width="0.25"/></clipPath><clipPath id="t"><path d="M352.943,212.307a5.951,5.951,0,0,0-5.881,5.892l-82.039-82.5A5.951,5.951,0,0,1,270.9,129.8Z" fill="none" stroke="#000" stroke-miterlimit="10" stroke-width="0.25"/></clipPath><clipPath id="u"><polygon points="347.062 218.199 347.792 442.137 265.753 359.635 265.023 135.696 347.062 218.199" fill="none" stroke="#000" stroke-miterlimit="10" stroke-width="0.25"/></clipPath><clipPath id="v"><path d="M347.792,442.137a5.679,5.679,0,0,0,1.764,4.143l-82.039-82.5a5.679,5.679,0,0,1-1.764-4.143Z" fill="none" stroke="#000" stroke-miterlimit="10" stroke-width="0.25"/></clipPath><clipPath id="w"><path d="M349.556,446.281l-82.039-82.5a5.675,5.675,0,0,0,4.156,1.749l82.039,82.5A5.674,5.674,0,0,1,349.556,446.281Z" fill="none" stroke="#000" stroke-miterlimit="10" stroke-width="0.25"/></clipPath><clipPath id="x"><polygon points="353.712 448.029 271.673 365.527 566.586 365.527 648.625 448.029 353.712 448.029" fill="none" stroke="#000" stroke-miterlimit="10" stroke-width="0.25"/></clipPath><clipPath id="y"><path d="M648.625,448.029l-82.039-82.5a5.948,5.948,0,0,0,5.876-5.892l82.039,82.5a5.948,5.948,0,0,1-5.876,5.892Z" fill="none" stroke="#000" stroke-miterlimit="10" stroke-width="0.25"/></clipPath><clipPath id="z"><polygon points="501.625 341.954 501.01 153.377 548.198 153.377 548.813 341.954 501.625 341.954" fill="none" stroke="#000" stroke-miterlimit="10" stroke-width="0.25"/></clipPath><clipPath id="aa"><polygon points="583.664 424.457 583.049 235.879 630.237 235.879 630.852 424.457 583.664 424.457" fill="none" stroke="#000" stroke-miterlimit="10" stroke-width="0.25"/></clipPath><clipPath id="ab"><polygon points="583.664 424.457 501.625 341.954 501.01 153.377 583.049 235.879 583.664 424.457" fill="none" stroke="#000" stroke-miterlimit="10" stroke-width="0.25"/></clipPath><clipPath id="ac"><polygon points="583.049 235.879 501.01 153.377 548.198 153.377 630.237 235.879 583.049 235.879" fill="none" stroke="#000" stroke-miterlimit="10" stroke-width="0.25"/></clipPath><clipPath id="ad"><polygon points="630.237 235.879 630.852 424.457 548.813 341.954 548.198 153.377 630.237 235.879" fill="none" stroke="#000" stroke-miterlimit="10" stroke-width="0.25"/></clipPath><clipPath id="ae"><polygon points="630.852 424.457 583.664 424.457 501.625 341.954 548.813 341.954 630.852 424.457" fill="none" stroke="#000" stroke-miterlimit="10" stroke-width="0.25"/></clipPath><clipPath id="af"><polygon points="430.848 341.954 430.464 224.094 477.649 224.094 478.033 341.954 430.848 341.954" fill="none" stroke="#000" stroke-miterlimit="10" stroke-width="0.25"/></clipPath><clipPath id="ag"><polygon points="512.887 424.457 512.503 306.597 559.688 306.597 560.072 424.457 512.887 424.457" fill="none" stroke="#000" stroke-miterlimit="10" stroke-width="0.25"/></clipPath><clipPath id="ah"><polygon points="512.887 424.457 430.848 341.954 430.464 224.094 512.503 306.597 512.887 424.457" fill="none" stroke="#000" stroke-miterlimit="10" stroke-width="0.25"/></clipPath><clipPath id="ai"><polygon points="512.503 306.597 430.464 224.094 477.649 224.094 559.688 306.597 512.503 306.597" fill="none" stroke="#000" stroke-miterlimit="10" stroke-width="0.25"/></clipPath><clipPath id="aj"><polygon points="559.688 306.597 560.072 424.457 478.033 341.954 477.649 224.094 559.688 306.597" fill="none" stroke="#000" stroke-miterlimit="10" stroke-width="0.25"/></clipPath><clipPath id="ak"><polygon points="560.072 424.457 512.887 424.457 430.848 341.954 478.033 341.954 560.072 424.457" fill="none" stroke="#000" stroke-miterlimit="10" stroke-width="0.25"/></clipPath><clipPath id="al"><polygon points="360.069 341.954 359.531 176.951 406.719 176.951 407.257 341.954 360.069 341.954" fill="none" stroke="#000" stroke-miterlimit="10" stroke-width="0.25"/></clipPath><clipPath id="am"><polygon points="442.107 424.457 441.569 259.453 488.757 259.453 489.295 424.457 442.107 424.457" fill="none" stroke="#000" stroke-miterlimit="10" stroke-width="0.25"/></clipPath><clipPath id="an"><polygon points="442.107 424.457 360.069 341.954 359.531 176.951 441.569 259.453 442.107 424.457" fill="none" stroke="#000" stroke-miterlimit="10" stroke-width="0.25"/></clipPath><clipPath id="ao"><polygon points="441.569 259.453 359.531 176.951 406.719 176.951 488.757 259.453 441.569 259.453" fill="none" stroke="#000" stroke-miterlimit="10" stroke-width="0.25"/></clipPath><clipPath id="ap"><polygon points="488.757 259.453 489.295 424.457 407.257 341.954 406.719 176.951 488.757 259.453" fill="none" stroke="#000" stroke-miterlimit="10" stroke-width="0.25"/></clipPath><clipPath id="aq"><polygon points="489.295 424.457 442.107 424.457 360.069 341.954 407.257 341.954 489.295 424.457" fill="none" stroke="#000" stroke-miterlimit="10" stroke-width="0.25"/></clipPath><clipPath id="ar"><polygon points="289.288 341.954 289.057 271.237 336.245 271.237 336.475 341.954 289.288 341.954" fill="none" stroke="#000" stroke-miterlimit="10" stroke-width="0.25"/></clipPath><clipPath id="as"><polygon points="371.326 424.457 371.096 353.74 418.284 353.74 418.514 424.457 371.326 424.457" fill="none" stroke="#000" stroke-miterlimit="10" stroke-width="0.25"/></clipPath><clipPath id="at"><polygon points="371.326 424.457 289.288 341.954 289.057 271.237 371.096 353.74 371.326 424.457" fill="none" stroke="#000" stroke-miterlimit="10" stroke-width="0.25"/></clipPath><clipPath id="au"><polygon points="371.096 353.74 289.057 271.237 336.245 271.237 418.284 353.74 371.096 353.74" fill="none" stroke="#000" stroke-miterlimit="10" stroke-width="0.25"/></clipPath><clipPath id="av"><polygon points="418.284 353.74 418.514 424.457 336.475 341.954 336.245 271.237 418.284 353.74" fill="none" stroke="#000" stroke-miterlimit="10" stroke-width="0.25"/></clipPath><clipPath id="aw"><polygon points="418.514 424.457 371.326 424.457 289.288 341.954 336.475 341.954 418.514 424.457" fill="none" stroke="#000" stroke-miterlimit="10" stroke-width="0.25"/></clipPath><radialGradient id="ax" cx="570.14" cy="861.665" r="750.252" gradientUnits="userSpaceOnUse"><stop offset="0" stop-color="#476fbd"/><stop offset="1" stop-color="#476fbd" stop-opacity="0"/></radialGradient></defs><title>index_1200_27_pass_icons</title><g style="isolation:isolate"><g clip-path="url(#a)"><circle cx="1072.348" cy="740.931" r="445.666" fill="url(#b)"/></g><g clip-path="url(#c)"><rect width="647" height="557" fill="#08a9ae"/><g opacity="0.5" style="mix-blend-mode:soft-light"><g style="isolation:isolate"><g style="isolation:isolate"><g clip-path="url(#d)"><path d="M586.6,114.887a28.465,28.465,0,0,1,8.729,20.809l.73,223.939A29.443,29.443,0,0,1,566.663,389.1H271.75a29.684,29.684,0,0,1-29.589-29.461L241.43,135.7a29.451,29.451,0,0,1,29.4-29.463H565.74A28.515,28.515,0,0,1,586.6,114.887ZM572.462,359.635l-.73-223.939a6,6,0,0,0-5.915-5.892H270.9a5.951,5.951,0,0,0-5.881,5.892l.73,223.939a6,6,0,0,0,5.919,5.892H566.586a5.948,5.948,0,0,0,5.876-5.892" fill="none" stroke="#000" stroke-miterlimit="10" stroke-width="0.25"/></g><path d="M586.6,114.887a28.465,28.465,0,0,1,8.729,20.809l.73,223.939A29.443,29.443,0,0,1,566.663,389.1H271.75a29.684,29.684,0,0,1-29.589-29.461L241.43,135.7a29.451,29.451,0,0,1,29.4-29.463H565.74A28.515,28.515,0,0,1,586.6,114.887ZM572.462,359.635l-.73-223.939a6,6,0,0,0-5.915-5.892H270.9a5.951,5.951,0,0,0-5.881,5.892l.73,223.939a6,6,0,0,0,5.919,5.892H566.586a5.948,5.948,0,0,0,5.876-5.892" fill="none" stroke="#000" stroke-miterlimit="10" stroke-width="0.25"/></g><g style="isolation:isolate"><g clip-path="url(#e)"><path d="M668.635,197.39a28.465,28.465,0,0,1,8.729,20.809l.73,223.939A29.443,29.443,0,0,1,648.7,471.6H353.789A29.684,29.684,0,0,1,324.2,442.137l-.73-223.939a29.451,29.451,0,0,1,29.4-29.463H647.779A28.515,28.515,0,0,1,668.635,197.39ZM654.5,442.137l-.73-223.939a6,6,0,0,0-5.915-5.892H352.943a5.951,5.951,0,0,0-5.881,5.892l.73,223.939a6,6,0,0,0,5.919,5.892H648.625a5.948,5.948,0,0,0,5.876-5.892" fill="none" stroke="#000" stroke-miterlimit="10" stroke-width="0.25"/></g><path d="M668.635,197.39a28.465,28.465,0,0,1,8.729,20.809l.73,223.939A29.443,29.443,0,0,1,648.7,471.6H353.789A29.684,29.684,0,0,1,324.2,442.137l-.73-223.939a29.451,29.451,0,0,1,29.4-29.463H647.779A28.515,28.515,0,0,1,668.635,197.39ZM654.5,442.137l-.73-223.939a6,6,0,0,0-5.915-5.892H352.943a5.951,5.951,0,0,0-5.881,5.892l.73,223.939a6,6,0,0,0,5.919,5.892H648.625a5.948,5.948,0,0,0,5.876-5.892" fill="none" stroke="#000" stroke-miterlimit="10" stroke-width="0.25"/></g><g style="isolation:isolate"><g clip-path="url(#f)"><g style="isolation:isolate"><path d="M668.635,197.39l-82.039-82.5a28.465,28.465,0,0,1,8.729,20.809l82.039,82.5A28.465,28.465,0,0,0,668.635,197.39Z" fill="none" stroke="#000" stroke-miterlimit="10" stroke-width="0.25"/><line x1="673.467" y1="203.551" x2="591.428" y2="121.048" fill="none" stroke="#000" stroke-miterlimit="10" stroke-width="0.25"/><line x1="676.377" y1="210.487" x2="594.338" y2="127.984" fill="none" stroke="#000" stroke-miterlimit="10" stroke-width="0.25"/></g><path d="M668.635,197.39a28.465,28.465,0,0,1,8.729,20.809l-82.039-82.5a28.465,28.465,0,0,0-8.729-20.809C611.208,139.638,643.968,172.694,668.635,197.39Z" fill="none" stroke="#000" stroke-miterlimit="10" stroke-width="0.25"/></g><path d="M668.635,197.39a28.465,28.465,0,0,1,8.729,20.809l-82.039-82.5a28.465,28.465,0,0,0-8.729-20.809C611.208,139.638,643.968,172.694,668.635,197.39Z" fill="none" stroke="#000" stroke-miterlimit="10" stroke-width="0.25"/></g><g style="isolation:isolate"><g clip-path="url(#g)"><polygon points="677.364 218.199 678.094 442.137 596.055 359.635 595.325 135.696 677.364 218.199" fill="none" stroke="#000" stroke-miterlimit="10" stroke-width="0.25"/></g><polygon points="677.364 218.199 678.094 442.137 596.055 359.635 595.325 135.696 677.364 218.199" fill="none" stroke="#000" stroke-miterlimit="10" stroke-width="0.25"/></g><g style="isolation:isolate"><g clip-path="url(#h)"><g style="isolation:isolate"><path d="M678.094,442.137l-82.039-82.5a28.274,28.274,0,0,1-8.593,20.808l82.039,82.5A28.274,28.274,0,0,0,678.094,442.137Z" fill="none" stroke="#000" stroke-miterlimit="10" stroke-width="0.25"/><line x1="677.157" y1="449.849" x2="595.118" y2="367.347" fill="none" stroke="#000" stroke-miterlimit="10" stroke-width="0.25"/><line x1="674.293" y1="456.785" x2="592.254" y2="374.283" fill="none" stroke="#000" stroke-miterlimit="10" stroke-width="0.25"/><path d="M669.5,462.945l-82.039-82.5a28.329,28.329,0,0,1-20.8,8.654L648.7,471.6A28.329,28.329,0,0,0,669.5,462.945Z" fill="none" stroke="#000" stroke-miterlimit="10" stroke-width="0.25"/><line x1="663.35" y1="467.753" x2="581.311" y2="385.25" fill="none" stroke="#000" stroke-miterlimit="10" stroke-width="0.25"/><line x1="656.417" y1="470.637" x2="574.378" y2="388.135" fill="none" stroke="#000" stroke-miterlimit="10" stroke-width="0.25"/></g><path d="M678.094,442.137A29.443,29.443,0,0,1,648.7,471.6l-82.039-82.5a29.443,29.443,0,0,0,29.393-29.461Z" fill="none" stroke="#000" stroke-miterlimit="10" stroke-width="0.25"/></g><path d="M678.094,442.137A29.443,29.443,0,0,1,648.7,471.6l-82.039-82.5a29.443,29.443,0,0,0,29.393-29.461Z" fill="none" stroke="#000" stroke-miterlimit="10" stroke-width="0.25"/></g><g style="isolation:isolate"><g clip-path="url(#i)"><polygon points="648.701 471.599 353.789 471.599 271.75 389.096 566.663 389.096 648.701 471.599" fill="none" stroke="#000" stroke-miterlimit="10" stroke-width="0.25"/></g><polygon points="648.701 471.599 353.789 471.599 271.75 389.096 566.663 389.096 648.701 471.599" fill="none" stroke="#000" stroke-miterlimit="10" stroke-width="0.25"/></g><g style="isolation:isolate"><g clip-path="url(#j)"><g style="isolation:isolate"><path d="M353.789,471.6,271.75,389.1a28.5,28.5,0,0,1-20.856-8.654l82.039,82.5A28.5,28.5,0,0,0,353.789,471.6Z" fill="none" stroke="#000" stroke-miterlimit="10" stroke-width="0.25"/><line x1="346.063" y1="470.637" x2="264.024" y2="388.135" fill="none" stroke="#000" stroke-miterlimit="10" stroke-width="0.25"/><line x1="339.111" y1="467.753" x2="257.072" y2="385.25" fill="none" stroke="#000" stroke-miterlimit="10" stroke-width="0.25"/></g><path d="M353.789,471.6a28.5,28.5,0,0,1-20.856-8.654l-82.039-82.5A28.5,28.5,0,0,0,271.75,389.1Z" fill="none" stroke="#000" stroke-miterlimit="10" stroke-width="0.25"/></g><path d="M353.789,471.6a28.5,28.5,0,0,1-20.856-8.654l-82.039-82.5A28.5,28.5,0,0,0,271.75,389.1Z" fill="none" stroke="#000" stroke-miterlimit="10" stroke-width="0.25"/></g><g style="isolation:isolate"><g clip-path="url(#k)"><g style="isolation:isolate"><path d="M332.933,462.945l-82.039-82.5a28.446,28.446,0,0,1-8.734-20.808l82.039,82.5A28.446,28.446,0,0,0,332.933,462.945Z" fill="none" stroke="#000" stroke-miterlimit="10" stroke-width="0.25"/><line x1="328.098" y1="456.785" x2="246.059" y2="374.283" fill="none" stroke="#000" stroke-miterlimit="10" stroke-width="0.25"/><line x1="325.187" y1="449.849" x2="243.148" y2="367.347" fill="none" stroke="#000" stroke-miterlimit="10" stroke-width="0.25"/></g><path d="M332.933,462.945l-82.039-82.5a28.446,28.446,0,0,1-8.734-20.808l82.039,82.5A28.446,28.446,0,0,0,332.933,462.945Z" fill="none" stroke="#000" stroke-miterlimit="10" stroke-width="0.25"/></g><path d="M332.933,462.945l-82.039-82.5a28.446,28.446,0,0,1-8.734-20.808l82.039,82.5A28.446,28.446,0,0,0,332.933,462.945Z" fill="none" stroke="#000" stroke-miterlimit="10" stroke-width="0.25"/></g><g style="isolation:isolate"><g clip-path="url(#l)"><polygon points="324.199 442.137 242.16 359.635 241.43 135.696 323.469 218.199 324.199 442.137" fill="none" stroke="#000" stroke-miterlimit="10" stroke-width="0.25"/></g><polygon points="324.199 442.137 242.16 359.635 241.43 135.696 323.469 218.199 324.199 442.137" fill="none" stroke="#000" stroke-miterlimit="10" stroke-width="0.25"/></g><g style="isolation:isolate"><g clip-path="url(#m)"><g style="isolation:isolate"><path d="M323.469,218.2,241.43,135.7a28.266,28.266,0,0,1,8.6-20.809l82.039,82.5A28.266,28.266,0,0,0,323.469,218.2Z" fill="none" stroke="#000" stroke-miterlimit="10" stroke-width="0.25"/><line x1="324.406" y1="210.487" x2="242.368" y2="127.984" fill="none" stroke="#000" stroke-miterlimit="10" stroke-width="0.25"/><line x1="327.272" y1="203.551" x2="245.233" y2="121.048" fill="none" stroke="#000" stroke-miterlimit="10" stroke-width="0.25"/><path d="M332.067,197.39l-82.039-82.5a28.31,28.31,0,0,1,20.8-8.654l82.039,82.5A28.31,28.31,0,0,0,332.067,197.39Z" fill="none" stroke="#000" stroke-miterlimit="10" stroke-width="0.25"/><line x1="338.213" y1="192.582" x2="256.175" y2="110.079" fill="none" stroke="#000" stroke-miterlimit="10" stroke-width="0.25"/><line x1="345.147" y1="189.697" x2="263.108" y2="107.195" fill="none" stroke="#000" stroke-miterlimit="10" stroke-width="0.25"/></g><path d="M323.469,218.2,241.43,135.7a29.451,29.451,0,0,1,29.4-29.463l82.039,82.5a29.451,29.451,0,0,0-29.4,29.463Z" fill="none" stroke="#000" stroke-miterlimit="10" stroke-width="0.25"/></g><path d="M323.469,218.2,241.43,135.7a29.451,29.451,0,0,1,29.4-29.463l82.039,82.5a29.451,29.451,0,0,0-29.4,29.463Z" fill="none" stroke="#000" stroke-miterlimit="10" stroke-width="0.25"/></g><g style="isolation:isolate"><g clip-path="url(#n)"><polygon points="352.866 188.736 270.827 106.233 565.74 106.233 647.779 188.736 352.866 188.736" fill="none" stroke="#000" stroke-miterlimit="10" stroke-width="0.25"/></g><polygon points="352.866 188.736 270.827 106.233 565.74 106.233 647.779 188.736 352.866 188.736" fill="none" stroke="#000" stroke-miterlimit="10" stroke-width="0.25"/></g><g style="isolation:isolate"><g clip-path="url(#o)"><g style="isolation:isolate"><path d="M647.779,188.736l-82.039-82.5a28.515,28.515,0,0,1,20.856,8.654l82.039,82.5A28.515,28.515,0,0,0,647.779,188.736Z" fill="none" stroke="#000" stroke-miterlimit="10" stroke-width="0.25"/><line x1="655.501" y1="189.697" x2="573.462" y2="107.195" fill="none" stroke="#000" stroke-miterlimit="10" stroke-width="0.25"/><line x1="662.453" y1="192.582" x2="580.414" y2="110.079" fill="none" stroke="#000" stroke-miterlimit="10" stroke-width="0.25"/></g><path d="M647.779,188.736l-82.039-82.5a28.515,28.515,0,0,1,20.856,8.654l82.039,82.5A28.515,28.515,0,0,0,647.779,188.736Z" fill="none" stroke="#000" stroke-miterlimit="10" stroke-width="0.25"/></g><path d="M647.779,188.736l-82.039-82.5a28.515,28.515,0,0,1,20.856,8.654l82.039,82.5A28.515,28.515,0,0,0,647.779,188.736Z" fill="none" stroke="#000" stroke-miterlimit="10" stroke-width="0.25"/></g><g style="isolation:isolate"><g clip-path="url(#p)"><polygon points="654.501 442.137 572.462 359.635 571.732 135.696 653.771 218.199 654.501 442.137" fill="none" stroke="#000" stroke-miterlimit="10" stroke-width="0.25"/></g><polygon points="654.501 442.137 572.462 359.635 571.732 135.696 653.771 218.199 654.501 442.137" fill="none" stroke="#000" stroke-miterlimit="10" stroke-width="0.25"/></g><g style="isolation:isolate"><g clip-path="url(#q)"><g style="isolation:isolate"><path d="M653.771,218.2l-82.039-82.5a5.694,5.694,0,0,0-1.762-4.143l82.039,82.5A5.694,5.694,0,0,1,653.771,218.2Z" fill="none" stroke="#000" stroke-miterlimit="10" stroke-width="0.25"/><line x1="653.572" y1="216.677" x2="571.533" y2="134.174" fill="none" stroke="#000" stroke-miterlimit="10" stroke-width="0.25"/><line x1="652.984" y1="215.295" x2="570.945" y2="132.793" fill="none" stroke="#000" stroke-miterlimit="10" stroke-width="0.25"/></g><path d="M653.771,218.2l-82.039-82.5a5.694,5.694,0,0,0-1.762-4.143l82.039,82.5A5.694,5.694,0,0,1,653.771,218.2Z" fill="none" stroke="#000" stroke-miterlimit="10" stroke-width="0.25"/></g><path d="M653.771,218.2l-82.039-82.5a5.694,5.694,0,0,0-1.762-4.143l82.039,82.5A5.694,5.694,0,0,1,653.771,218.2Z" fill="none" stroke="#000" stroke-miterlimit="10" stroke-width="0.25"/></g><g style="isolation:isolate"><g clip-path="url(#r)"><g style="isolation:isolate"><path d="M652.009,214.055l-82.039-82.5a5.708,5.708,0,0,0-4.153-1.749l82.039,82.5A5.708,5.708,0,0,1,652.009,214.055Z" fill="none" stroke="#000" stroke-miterlimit="10" stroke-width="0.25"/><line x1="650.764" y1="213.084" x2="568.725" y2="130.582" fill="none" stroke="#000" stroke-miterlimit="10" stroke-width="0.25"/><line x1="649.38" y1="212.501" x2="567.341" y2="129.999" fill="none" stroke="#000" stroke-miterlimit="10" stroke-width="0.25"/></g><path d="M652.009,214.055a5.708,5.708,0,0,0-4.153-1.749l-82.039-82.5a5.708,5.708,0,0,1,4.153,1.749Z" fill="none" stroke="#000" stroke-miterlimit="10" stroke-width="0.25"/></g><path d="M652.009,214.055a5.708,5.708,0,0,0-4.153-1.749l-82.039-82.5a5.708,5.708,0,0,1,4.153,1.749Z" fill="none" stroke="#000" stroke-miterlimit="10" stroke-width="0.25"/></g><g style="isolation:isolate"><g clip-path="url(#s)"><polygon points="647.856 212.307 352.943 212.307 270.904 129.804 565.817 129.804 647.856 212.307" fill="none" stroke="#000" stroke-miterlimit="10" stroke-width="0.25"/></g><polygon points="647.856 212.307 352.943 212.307 270.904 129.804 565.817 129.804 647.856 212.307" fill="none" stroke="#000" stroke-miterlimit="10" stroke-width="0.25"/></g><g style="isolation:isolate"><g clip-path="url(#t)"><g style="isolation:isolate"><path d="M352.943,212.307,270.9,129.8a5.655,5.655,0,0,0-4.144,1.749l82.039,82.5A5.655,5.655,0,0,1,352.943,212.307Z" fill="none" stroke="#000" stroke-miterlimit="10" stroke-width="0.25"/><line x1="351.415" y1="212.501" x2="269.376" y2="129.999" fill="none" stroke="#000" stroke-miterlimit="10" stroke-width="0.25"/><line x1="350.034" y1="213.084" x2="267.995" y2="130.582" fill="none" stroke="#000" stroke-miterlimit="10" stroke-width="0.25"/><path d="M348.8,214.055l-82.039-82.5a5.652,5.652,0,0,0-1.737,4.143l82.039,82.5A5.652,5.652,0,0,1,348.8,214.055Z" fill="none" stroke="#000" stroke-miterlimit="10" stroke-width="0.25"/><line x1="347.83" y1="215.296" x2="265.792" y2="132.793" fill="none" stroke="#000" stroke-miterlimit="10" stroke-width="0.25"/><line x1="347.252" y1="216.677" x2="265.213" y2="134.174" fill="none" stroke="#000" stroke-miterlimit="10" stroke-width="0.25"/></g><path d="M352.943,212.307a5.951,5.951,0,0,0-5.881,5.892l-82.039-82.5A5.951,5.951,0,0,1,270.9,129.8Z" fill="none" stroke="#000" stroke-miterlimit="10" stroke-width="0.25"/></g><path d="M352.943,212.307a5.951,5.951,0,0,0-5.881,5.892l-82.039-82.5A5.951,5.951,0,0,1,270.9,129.8Z" fill="none" stroke="#000" stroke-miterlimit="10" stroke-width="0.25"/></g><g style="isolation:isolate"><g clip-path="url(#u)"><polygon points="347.062 218.199 347.792 442.137 265.753 359.635 265.023 135.696 347.062 218.199" fill="none" stroke="#000" stroke-miterlimit="10" stroke-width="0.25"/></g><polygon points="347.062 218.199 347.792 442.137 265.753 359.635 265.023 135.696 347.062 218.199" fill="none" stroke="#000" stroke-miterlimit="10" stroke-width="0.25"/></g><g style="isolation:isolate"><g clip-path="url(#v)"><g style="isolation:isolate"><path d="M347.792,442.137l-82.039-82.5a5.679,5.679,0,0,0,1.764,4.143l82.039,82.5A5.679,5.679,0,0,1,347.792,442.137Z" fill="none" stroke="#000" stroke-miterlimit="10" stroke-width="0.25"/><line x1="347.992" y1="443.662" x2="265.953" y2="361.159" fill="none" stroke="#000" stroke-miterlimit="10" stroke-width="0.25"/><line x1="348.579" y1="445.043" x2="266.541" y2="362.54" fill="none" stroke="#000" stroke-miterlimit="10" stroke-width="0.25"/></g><path d="M347.792,442.137a5.679,5.679,0,0,0,1.764,4.143l-82.039-82.5a5.679,5.679,0,0,1-1.764-4.143Z" fill="none" stroke="#000" stroke-miterlimit="10" stroke-width="0.25"/></g><path d="M347.792,442.137a5.679,5.679,0,0,0,1.764,4.143l-82.039-82.5a5.679,5.679,0,0,1-1.764-4.143Z" fill="none" stroke="#000" stroke-miterlimit="10" stroke-width="0.25"/></g><g style="isolation:isolate"><g clip-path="url(#w)"><g style="isolation:isolate"><path d="M349.556,446.281l-82.039-82.5a5.674,5.674,0,0,0,4.156,1.749l82.039,82.5A5.674,5.674,0,0,1,349.556,446.281Z" fill="none" stroke="#000" stroke-miterlimit="10" stroke-width="0.25"/><line x1="350.797" y1="447.254" x2="268.759" y2="364.751" fill="none" stroke="#000" stroke-miterlimit="10" stroke-width="0.25"/><line x1="352.182" y1="447.836" x2="270.144" y2="365.333" fill="none" stroke="#000" stroke-miterlimit="10" stroke-width="0.25"/></g><path d="M349.556,446.281l-82.039-82.5a5.675,5.675,0,0,0,4.156,1.749l82.039,82.5A5.674,5.674,0,0,1,349.556,446.281Z" fill="none" stroke="#000" stroke-miterlimit="10" stroke-width="0.25"/></g><path d="M349.556,446.281l-82.039-82.5a5.675,5.675,0,0,0,4.156,1.749l82.039,82.5A5.674,5.674,0,0,1,349.556,446.281Z" fill="none" stroke="#000" stroke-miterlimit="10" stroke-width="0.25"/></g><g style="isolation:isolate"><g clip-path="url(#x)"><polygon points="353.712 448.029 271.673 365.527 566.586 365.527 648.625 448.029 353.712 448.029" fill="none" stroke="#000" stroke-miterlimit="10" stroke-width="0.25"/></g><polygon points="353.712 448.029 271.673 365.527 566.586 365.527 648.625 448.029 353.712 448.029" fill="none" stroke="#000" stroke-miterlimit="10" stroke-width="0.25"/></g><g style="isolation:isolate"><g clip-path="url(#y)"><g style="isolation:isolate"><path d="M648.625,448.029l-82.039-82.5a5.652,5.652,0,0,0,4.141-1.749l82.039,82.5A5.652,5.652,0,0,1,648.625,448.029Z" fill="none" stroke="#000" stroke-miterlimit="10" stroke-width="0.25"/><line x1="650.147" y1="447.836" x2="568.108" y2="365.333" fill="none" stroke="#000" stroke-miterlimit="10" stroke-width="0.25"/><line x1="651.527" y1="447.254" x2="569.488" y2="364.751" fill="none" stroke="#000" stroke-miterlimit="10" stroke-width="0.25"/><path d="M652.766,446.281l-82.039-82.5a5.646,5.646,0,0,0,1.735-4.143l82.039,82.5A5.646,5.646,0,0,1,652.766,446.281Z" fill="none" stroke="#000" stroke-miterlimit="10" stroke-width="0.25"/><line x1="653.733" y1="445.043" x2="571.695" y2="362.54" fill="none" stroke="#000" stroke-miterlimit="10" stroke-width="0.25"/><line x1="654.312" y1="443.662" x2="572.273" y2="361.159" fill="none" stroke="#000" stroke-miterlimit="10" stroke-width="0.25"/></g><path d="M648.625,448.029l-82.039-82.5a5.948,5.948,0,0,0,5.876-5.892l82.039,82.5a5.948,5.948,0,0,1-5.876,5.892Z" fill="none" stroke="#000" stroke-miterlimit="10" stroke-width="0.25"/></g><path d="M648.625,448.029l-82.039-82.5a5.948,5.948,0,0,0,5.876-5.892l82.039,82.5a5.948,5.948,0,0,1-5.876,5.892Z" fill="none" stroke="#000" stroke-miterlimit="10" stroke-width="0.25"/></g><g style="isolation:isolate"><g clip-path="url(#z)"><polygon points="501.625 341.954 501.01 153.377 548.198 153.377 548.813 341.954 501.625 341.954" fill="none" stroke="#000" stroke-miterlimit="10" stroke-width="0.25"/></g><polygon points="501.625 341.954 501.01 153.377 548.198 153.377 548.813 341.954 501.625 341.954" fill="none" stroke="#000" stroke-miterlimit="10" stroke-width="0.25"/></g><g style="isolation:isolate"><g clip-path="url(#aa)"><polygon points="583.664 424.457 583.049 235.879 630.237 235.879 630.852 424.457 583.664 424.457" fill="none" stroke="#000" stroke-miterlimit="10" stroke-width="0.25"/></g><polygon points="583.664 424.457 583.049 235.879 630.237 235.879 630.852 424.457 583.664 424.457" fill="none" stroke="#000" stroke-miterlimit="10" stroke-width="0.25"/></g><g style="isolation:isolate"><g clip-path="url(#ab)"><polygon points="583.664 424.457 501.625 341.954 501.01 153.377 583.049 235.879 583.664 424.457" fill="none" stroke="#000" stroke-miterlimit="10" stroke-width="0.25"/></g><polygon points="583.664 424.457 501.625 341.954 501.01 153.377 583.049 235.879 583.664 424.457" fill="none" stroke="#000" stroke-miterlimit="10" stroke-width="0.25"/></g><g style="isolation:isolate"><g clip-path="url(#ac)"><polygon points="583.049 235.879 501.01 153.377 548.198 153.377 630.237 235.879 583.049 235.879" fill="none" stroke="#000" stroke-miterlimit="10" stroke-width="0.25"/></g><polygon points="583.049 235.879 501.01 153.377 548.198 153.377 630.237 235.879 583.049 235.879" fill="none" stroke="#000" stroke-miterlimit="10" stroke-width="0.25"/></g><g style="isolation:isolate"><g clip-path="url(#ad)"><polygon points="630.237 235.879 630.852 424.457 548.813 341.954 548.198 153.377 630.237 235.879" fill="none" stroke="#000" stroke-miterlimit="10" stroke-width="0.25"/></g><polygon points="630.237 235.879 630.852 424.457 548.813 341.954 548.198 153.377 630.237 235.879" fill="none" stroke="#000" stroke-miterlimit="10" stroke-width="0.25"/></g><g style="isolation:isolate"><g clip-path="url(#ae)"><polygon points="630.852 424.457 583.664 424.457 501.625 341.954 548.813 341.954 630.852 424.457" fill="none" stroke="#000" stroke-miterlimit="10" stroke-width="0.25"/></g><polygon points="630.852 424.457 583.664 424.457 501.625 341.954 548.813 341.954 630.852 424.457" fill="none" stroke="#000" stroke-miterlimit="10" stroke-width="0.25"/></g><g style="isolation:isolate"><g clip-path="url(#af)"><polygon points="430.848 341.954 430.464 224.094 477.649 224.094 478.033 341.954 430.848 341.954" fill="none" stroke="#000" stroke-miterlimit="10" stroke-width="0.25"/></g><polygon points="430.848 341.954 430.464 224.094 477.649 224.094 478.033 341.954 430.848 341.954" fill="none" stroke="#000" stroke-miterlimit="10" stroke-width="0.25"/></g><g style="isolation:isolate"><g clip-path="url(#ag)"><polygon points="512.887 424.457 512.503 306.597 559.688 306.597 560.072 424.457 512.887 424.457" fill="none" stroke="#000" stroke-miterlimit="10" stroke-width="0.25"/></g><polygon points="512.887 424.457 512.503 306.597 559.688 306.597 560.072 424.457 512.887 424.457" fill="none" stroke="#000" stroke-miterlimit="10" stroke-width="0.25"/></g><g style="isolation:isolate"><g clip-path="url(#ah)"><polygon points="512.887 424.457 430.848 341.954 430.464 224.094 512.503 306.597 512.887 424.457" fill="none" stroke="#000" stroke-miterlimit="10" stroke-width="0.25"/></g><polygon points="512.887 424.457 430.848 341.954 430.464 224.094 512.503 306.597 512.887 424.457" fill="none" stroke="#000" stroke-miterlimit="10" stroke-width="0.25"/></g><g style="isolation:isolate"><g clip-path="url(#ai)"><polygon points="512.503 306.597 430.464 224.094 477.649 224.094 559.688 306.597 512.503 306.597" fill="none" stroke="#000" stroke-miterlimit="10" stroke-width="0.25"/></g><polygon points="512.503 306.597 430.464 224.094 477.649 224.094 559.688 306.597 512.503 306.597" fill="none" stroke="#000" stroke-miterlimit="10" stroke-width="0.25"/></g><g style="isolation:isolate"><g clip-path="url(#aj)"><polygon points="559.688 306.597 560.072 424.457 478.033 341.954 477.649 224.094 559.688 306.597" fill="none" stroke="#000" stroke-miterlimit="10" stroke-width="0.25"/></g><polygon points="559.688 306.597 560.072 424.457 478.033 341.954 477.649 224.094 559.688 306.597" fill="none" stroke="#000" stroke-miterlimit="10" stroke-width="0.25"/></g><g style="isolation:isolate"><g clip-path="url(#ak)"><polygon points="560.072 424.457 512.887 424.457 430.848 341.954 478.033 341.954 560.072 424.457" fill="none" stroke="#000" stroke-miterlimit="10" stroke-width="0.25"/></g><polygon points="560.072 424.457 512.887 424.457 430.848 341.954 478.033 341.954 560.072 424.457" fill="none" stroke="#000" stroke-miterlimit="10" stroke-width="0.25"/></g><g style="isolation:isolate"><g clip-path="url(#al)"><polygon points="360.069 341.954 359.531 176.951 406.719 176.951 407.257 341.954 360.069 341.954" fill="none" stroke="#000" stroke-miterlimit="10" stroke-width="0.25"/></g><polygon points="360.069 341.954 359.531 176.951 406.719 176.951 407.257 341.954 360.069 341.954" fill="none" stroke="#000" stroke-miterlimit="10" stroke-width="0.25"/></g><g style="isolation:isolate"><g clip-path="url(#am)"><polygon points="442.107 424.457 441.569 259.453 488.757 259.453 489.295 424.457 442.107 424.457" fill="none" stroke="#000" stroke-miterlimit="10" stroke-width="0.25"/></g><polygon points="442.107 424.457 441.569 259.453 488.757 259.453 489.295 424.457 442.107 424.457" fill="none" stroke="#000" stroke-miterlimit="10" stroke-width="0.25"/></g><g style="isolation:isolate"><g clip-path="url(#an)"><polygon points="442.107 424.457 360.069 341.954 359.531 176.951 441.569 259.453 442.107 424.457" fill="none" stroke="#000" stroke-miterlimit="10" stroke-width="0.25"/></g><polygon points="442.107 424.457 360.069 341.954 359.531 176.951 441.569 259.453 442.107 424.457" fill="none" stroke="#000" stroke-miterlimit="10" stroke-width="0.25"/></g><g style="isolation:isolate"><g clip-path="url(#ao)"><polygon points="441.569 259.453 359.531 176.951 406.719 176.951 488.757 259.453 441.569 259.453" fill="none" stroke="#000" stroke-miterlimit="10" stroke-width="0.25"/></g><polygon points="441.569 259.453 359.531 176.951 406.719 176.951 488.757 259.453 441.569 259.453" fill="none" stroke="#000" stroke-miterlimit="10" stroke-width="0.25"/></g><g style="isolation:isolate"><g clip-path="url(#ap)"><polygon points="488.757 259.453 489.295 424.457 407.257 341.954 406.719 176.951 488.757 259.453" fill="none" stroke="#000" stroke-miterlimit="10" stroke-width="0.25"/></g><polygon points="488.757 259.453 489.295 424.457 407.257 341.954 406.719 176.951 488.757 259.453" fill="none" stroke="#000" stroke-miterlimit="10" stroke-width="0.25"/></g><g style="isolation:isolate"><g clip-path="url(#aq)"><polygon points="489.295 424.457 442.107 424.457 360.069 341.954 407.257 341.954 489.295 424.457" fill="none" stroke="#000" stroke-miterlimit="10" stroke-width="0.25"/></g><polygon points="489.295 424.457 442.107 424.457 360.069 341.954 407.257 341.954 489.295 424.457" fill="none" stroke="#000" stroke-miterlimit="10" stroke-width="0.25"/></g><g style="isolation:isolate"><g clip-path="url(#ar)"><polygon points="289.288 341.954 289.057 271.237 336.245 271.237 336.475 341.954 289.288 341.954" fill="none" stroke="#000" stroke-miterlimit="10" stroke-width="0.25"/></g><polygon points="289.288 341.954 289.057 271.237 336.245 271.237 336.475 341.954 289.288 341.954" fill="none" stroke="#000" stroke-miterlimit="10" stroke-width="0.25"/></g><g style="isolation:isolate"><g clip-path="url(#as)"><polygon points="371.326 424.457 371.096 353.74 418.284 353.74 418.514 424.457 371.326 424.457" fill="none" stroke="#000" stroke-miterlimit="10" stroke-width="0.25"/></g><polygon points="371.326 424.457 371.096 353.74 418.284 353.74 418.514 424.457 371.326 424.457" fill="none" stroke="#000" stroke-miterlimit="10" stroke-width="0.25"/></g><g style="isolation:isolate"><g clip-path="url(#at)"><polygon points="371.326 424.457 289.288 341.954 289.057 271.237 371.096 353.74 371.326 424.457" fill="none" stroke="#000" stroke-miterlimit="10" stroke-width="0.25"/></g><polygon points="371.326 424.457 289.288 341.954 289.057 271.237 371.096 353.74 371.326 424.457" fill="none" stroke="#000" stroke-miterlimit="10" stroke-width="0.25"/></g><g style="isolation:isolate"><g clip-path="url(#au)"><polygon points="371.096 353.74 289.057 271.237 336.245 271.237 418.284 353.74 371.096 353.74" fill="none" stroke="#000" stroke-miterlimit="10" stroke-width="0.25"/></g><polygon points="371.096 353.74 289.057 271.237 336.245 271.237 418.284 353.74 371.096 353.74" fill="none" stroke="#000" stroke-miterlimit="10" stroke-width="0.25"/></g><g style="isolation:isolate"><g clip-path="url(#av)"><polygon points="418.284 353.74 418.514 424.457 336.475 341.954 336.245 271.237 418.284 353.74" fill="none" stroke="#000" stroke-miterlimit="10" stroke-width="0.25"/></g><polygon points="418.284 353.74 418.514 424.457 336.475 341.954 336.245 271.237 418.284 353.74" fill="none" stroke="#000" stroke-miterlimit="10" stroke-width="0.25"/></g><g style="isolation:isolate"><g clip-path="url(#aw)"><polygon points="418.514 424.457 371.326 424.457 289.288 341.954 336.475 341.954 418.514 424.457" fill="none" stroke="#000" stroke-miterlimit="10" stroke-width="0.25"/></g><polygon points="418.514 424.457 371.326 424.457 289.288 341.954 336.475 341.954 418.514 424.457" fill="none" stroke="#000" stroke-miterlimit="10" stroke-width="0.25"/></g></g><path d="M323.811,442.067V218.057a29.561,29.561,0,0,1,29.475-29.475H648.037a29.561,29.561,0,0,1,29.475,29.475V442.067a29.561,29.561,0,0,1-29.475,29.476H353.286a29.561,29.561,0,0,1-29.475-29.476Zm23.58,0a5.977,5.977,0,0,0,5.9,5.9H648.037a5.977,5.977,0,0,0,5.9-5.9V218.057a5.977,5.977,0,0,0-5.9-5.895H353.286a5.977,5.977,0,0,0-5.9,5.895Zm23.58-17.685v-70.74h47.16v70.74Zm70.74,0V259.322h47.16V424.383Zm70.74,0v-117.9h47.16v117.9Zm70.74,0V235.742h47.16V424.383Z" fill="none" stroke="#000" stroke-miterlimit="10" stroke-width="4"/></g><circle cx="570.14" cy="861.665" r="750.252" fill="url(#ax)"/></g></g></svg>