<svg xmlns="http://www.w3.org/2000/svg" xmlns:xlink="http://www.w3.org/1999/xlink" viewBox="0 0 500 500"><defs><clipPath id="a"><path d="M26.033,247.093h0C10.434,149.7,78.033,88.337,227,64.477c65.454-10.484,113.861-10.156,152.3,1.271,53.776,15.984,86.872,53.816,95.778,109.423,7.165,44.735-10.162,100.712-53.078,170.793-28.754,46.9-69.678,102.066-131.966,112.042-59.026,9.454-113.8-27.913-155.081-61.64-64.925-53-101.537-103.2-108.916-149.274" fill="none"/></clipPath><radialGradient id="b" cx="476.544" cy="851.022" r="528.476" gradientUnits="userSpaceOnUse"><stop offset="0" stop-color="#08a9ae"/><stop offset="1" stop-color="#08a9ae" stop-opacity="0"/></radialGradient><clipPath id="c"><path d="M224.69,56.885a25.285,25.285,0,0,1,18.546,7.775L376.19,197.851q7.552,7.165,7.59,18.413a25.3,25.3,0,0,1-7.47,18.619L244.219,368.076a26.2,26.2,0,0,1-36.845,0l-15.316-15.344a26.275,26.275,0,0,1-.121-37.238l59.452-59.948H108.077a21.706,21.706,0,0,1-17.224-7.672,27.466,27.466,0,0,1-6.675-18.516l-.085-26.188a27.3,27.3,0,0,1,6.555-18.516,21.56,21.56,0,0,1,17.175-7.672H251.135l-59.841-60.154a24.441,24.441,0,0,1-7.8-18.413A24.281,24.281,0,0,1,191.174,80L206.391,64.66A24.9,24.9,0,0,1,224.69,56.885Z" fill="none" stroke="#fff" stroke-miterlimit="10" stroke-width="0.25"/></clipPath><clipPath id="d"><path d="M315.294,148.545a25.285,25.285,0,0,1,18.546,7.775L466.795,289.51q7.552,7.165,7.59,18.413a25.3,25.3,0,0,1-7.47,18.619L334.824,459.736a26.2,26.2,0,0,1-36.845,0l-15.316-15.344a26.275,26.275,0,0,1-.121-37.238l59.452-59.948H198.682a21.706,21.706,0,0,1-17.224-7.672,27.466,27.466,0,0,1-6.675-18.516l-.085-26.188a27.3,27.3,0,0,1,6.555-18.516,21.56,21.56,0,0,1,17.175-7.672H341.739L281.9,208.489a25.781,25.781,0,0,1-.119-36.825L297,156.32A24.9,24.9,0,0,1,315.294,148.545Z" fill="none" stroke="#fff" stroke-miterlimit="10" stroke-width="0.25"/></clipPath><clipPath id="e"><path d="M315.294,148.545l-90.6-91.66a25.285,25.285,0,0,1,18.546,7.775l90.6,91.66A25.285,25.285,0,0,0,315.294,148.545Z" fill="none" stroke="#fff" stroke-miterlimit="10" stroke-width="0.25"/></clipPath><clipPath id="f"><polygon points="333.841 156.32 243.236 64.66 376.19 197.851 466.795 289.51 333.841 156.32" fill="none" stroke="#fff" stroke-miterlimit="10" stroke-width="0.25"/></clipPath><clipPath id="g"><path d="M467.4,290.1q6.952,7.033,6.989,17.823a25.3,25.3,0,0,1-7.47,18.619l-90.6-91.66a25.3,25.3,0,0,0,7.47-18.619q-.035-10.791-6.989-17.823Z" fill="none" stroke="#fff" stroke-miterlimit="10" stroke-width="0.25"/></clipPath><clipPath id="h"><path d="M376.792,198.44l90.6,91.66q-.295-.3-.6-.59l-90.6-91.66Q376.5,198.142,376.792,198.44Z" fill="none" stroke="#fff" stroke-miterlimit="10" stroke-width="0.25"/></clipPath><clipPath id="i"><polygon points="466.915 326.542 334.824 459.736 244.219 368.076 376.31 234.882 466.915 326.542" fill="none" stroke="#fff" stroke-miterlimit="10" stroke-width="0.25"/></clipPath><clipPath id="j"><path d="M334.824,459.736a26.2,26.2,0,0,1-36.845,0l-90.6-91.66a26.2,26.2,0,0,0,36.845,0Z" fill="none" stroke="#fff" stroke-miterlimit="10" stroke-width="0.25"/></clipPath><clipPath id="k"><polygon points="297.979 459.736 282.663 444.392 192.058 352.733 207.374 368.076 297.979 459.736" fill="none" stroke="#fff" stroke-miterlimit="10" stroke-width="0.25"/></clipPath><clipPath id="l"><path d="M282.663,444.392l-90.6-91.66a26.275,26.275,0,0,1-.121-37.238l90.6,91.66a26.275,26.275,0,0,0,.121,37.238Z" fill="none" stroke="#fff" stroke-miterlimit="10" stroke-width="0.25"/></clipPath><clipPath id="m"><polygon points="282.542 407.155 191.938 315.495 251.389 255.547 341.994 347.206 282.542 407.155" fill="none" stroke="#fff" stroke-miterlimit="10" stroke-width="0.25"/></clipPath><clipPath id="n"><polygon points="341.994 347.206 198.682 347.206 108.077 255.547 251.389 255.547 341.994 347.206" fill="none" stroke="#fff" stroke-miterlimit="10" stroke-width="0.25"/></clipPath><clipPath id="o"><path d="M182.574,340.743l-90.6-91.66q-.572-.578-1.117-1.208a27.466,27.466,0,0,1-6.675-18.516l90.6,91.66a27.466,27.466,0,0,0,6.675,18.516Q182,340.165,182.574,340.743Z" fill="none" stroke="#fff" stroke-miterlimit="10" stroke-width="0.25"/></clipPath><clipPath id="p"><path d="M91.97,249.083a21.705,21.705,0,0,0,16.108,6.464l90.6,91.66a21.705,21.705,0,0,1-16.108-6.464Z" fill="none" stroke="#fff" stroke-miterlimit="10" stroke-width="0.25"/></clipPath><clipPath id="q"><polygon points="174.782 321.019 84.178 229.359 84.093 203.172 174.697 294.831 174.782 321.019" fill="none" stroke="#fff" stroke-miterlimit="10" stroke-width="0.25"/></clipPath><clipPath id="r"><path d="M174.7,294.831l-90.6-91.66a27.3,27.3,0,0,1,6.555-18.516,21.56,21.56,0,0,1,17.175-7.672l90.6,91.66a21.56,21.56,0,0,0-17.175,7.672A27.3,27.3,0,0,0,174.7,294.831Z" fill="none" stroke="#fff" stroke-miterlimit="10" stroke-width="0.25"/></clipPath><clipPath id="s"><polygon points="198.427 268.644 107.823 176.984 251.135 176.984 341.739 268.644 198.427 268.644" fill="none" stroke="#fff" stroke-miterlimit="10" stroke-width="0.25"/></clipPath><clipPath id="t"><polygon points="341.739 268.644 281.898 208.489 191.294 116.829 251.135 176.984 341.739 268.644" fill="none" stroke="#fff" stroke-miterlimit="10" stroke-width="0.25"/></clipPath><clipPath id="u"><path d="M281.252,207.856l-90.6-91.66a24.419,24.419,0,0,1-7.149-17.78A24.281,24.281,0,0,1,191.174,80l90.6,91.66a25.8,25.8,0,0,0-.527,36.192Z" fill="none" stroke="#fff" stroke-miterlimit="10" stroke-width="0.25"/></clipPath><clipPath id="v"><path d="M190.647,116.2q.316.32.646.633l90.6,91.66q-.33-.313-.646-.633Z" fill="none" stroke="#fff" stroke-miterlimit="10" stroke-width="0.25"/></clipPath><clipPath id="w"><polygon points="281.779 171.664 191.174 80.004 206.391 64.66 296.996 156.32 281.779 171.664" fill="none" stroke="#fff" stroke-miterlimit="10" stroke-width="0.25"/></clipPath><clipPath id="x"><path d="M297,156.32l-90.6-91.66a24.9,24.9,0,0,1,18.3-7.775l90.6,91.66A24.9,24.9,0,0,0,297,156.32Z" fill="none" stroke="#fff" stroke-miterlimit="10" stroke-width="0.25"/></clipPath></defs><title>test</title><g clip-path="url(#a)"><rect x="-29.613" y="43.072" width="523.567" height="437.959" fill="#e1edf0"/><circle cx="476.544" cy="851.022" r="528.476" fill="url(#b)"/><path d="M174.051,320.5V294.4a27.219,27.219,0,0,1,6.628-18.457,21.728,21.728,0,0,1,17.232-7.647H341.484L281.73,208.338a25.61,25.61,0,0,1,0-36.709l15.295-15.295a25.852,25.852,0,0,1,36.913,0L466.7,289.1q7.542,7.141,7.545,18.354a25.23,25.23,0,0,1-7.545,18.559L333.938,458.774a26.344,26.344,0,0,1-36.913,0L281.73,443.479a26.1,26.1,0,0,1,0-37.117l59.754-59.754H197.911a21.725,21.725,0,0,1-17.232-7.647A27.214,27.214,0,0,1,174.051,320.5Z" fill="none" stroke="#fff" stroke-miterlimit="10" stroke-width="4"/><g style="isolation:isolate"><g style="isolation:isolate"><g clip-path="url(#c)"><path d="M224.69,56.885a25.285,25.285,0,0,1,18.546,7.775L376.19,197.851q7.552,7.165,7.59,18.413a25.3,25.3,0,0,1-7.47,18.619L244.219,368.076a26.2,26.2,0,0,1-36.845,0l-15.316-15.344a26.275,26.275,0,0,1-.121-37.238l59.452-59.948H108.077a21.706,21.706,0,0,1-17.224-7.672,27.466,27.466,0,0,1-6.675-18.516l-.085-26.188a27.3,27.3,0,0,1,6.555-18.516,21.56,21.56,0,0,1,17.175-7.672H251.135l-59.841-60.154a24.441,24.441,0,0,1-7.8-18.413A24.281,24.281,0,0,1,191.174,80L206.391,64.66A24.9,24.9,0,0,1,224.69,56.885Z" fill="none" stroke="#fff" stroke-miterlimit="10" stroke-width="0.25"/></g><path d="M224.69,56.885a25.285,25.285,0,0,1,18.546,7.775L376.19,197.851q7.552,7.165,7.59,18.413a25.3,25.3,0,0,1-7.47,18.619L244.219,368.076a26.2,26.2,0,0,1-36.845,0l-15.316-15.344a26.275,26.275,0,0,1-.121-37.238l59.452-59.948H108.077a21.706,21.706,0,0,1-17.224-7.672,27.466,27.466,0,0,1-6.675-18.516l-.085-26.188a27.3,27.3,0,0,1,6.555-18.516,21.56,21.56,0,0,1,17.175-7.672H251.135l-59.841-60.154a24.441,24.441,0,0,1-7.8-18.413A24.281,24.281,0,0,1,191.174,80L206.391,64.66A24.9,24.9,0,0,1,224.69,56.885Z" fill="none" stroke="#fff" stroke-miterlimit="10" stroke-width="0.25"/></g><g style="isolation:isolate"><g clip-path="url(#d)"><path d="M315.294,148.545a25.285,25.285,0,0,1,18.546,7.775L466.795,289.51q7.552,7.165,7.59,18.413a25.3,25.3,0,0,1-7.47,18.619L334.824,459.736a26.2,26.2,0,0,1-36.845,0l-15.316-15.344a26.275,26.275,0,0,1-.121-37.238l59.452-59.948H198.682a21.706,21.706,0,0,1-17.224-7.672,27.466,27.466,0,0,1-6.675-18.516l-.085-26.188a27.3,27.3,0,0,1,6.555-18.516,21.56,21.56,0,0,1,17.175-7.672H341.739L281.9,208.489a25.781,25.781,0,0,1-.119-36.825L297,156.32A24.9,24.9,0,0,1,315.294,148.545Z" fill="none" stroke="#fff" stroke-miterlimit="10" stroke-width="0.25"/></g><path d="M315.294,148.545a25.285,25.285,0,0,1,18.546,7.775L466.795,289.51q7.552,7.165,7.59,18.413a25.3,25.3,0,0,1-7.47,18.619L334.824,459.736a26.2,26.2,0,0,1-36.845,0l-15.316-15.344a26.275,26.275,0,0,1-.121-37.238l59.452-59.948H198.682a21.706,21.706,0,0,1-17.224-7.672,27.466,27.466,0,0,1-6.675-18.516l-.085-26.188a27.3,27.3,0,0,1,6.555-18.516,21.56,21.56,0,0,1,17.175-7.672H341.739L281.9,208.489a25.781,25.781,0,0,1-.119-36.825L297,156.32A24.9,24.9,0,0,1,315.294,148.545Z" fill="none" stroke="#fff" stroke-miterlimit="10" stroke-width="0.25"/></g><g style="isolation:isolate"><g clip-path="url(#e)"><g style="isolation:isolate"><path d="M315.294,148.545l-90.6-91.66a25.285,25.285,0,0,1,18.546,7.775l90.6,91.66A25.285,25.285,0,0,0,315.294,148.545Z" fill="none" stroke="#fff" stroke-miterlimit="10" stroke-width="0.25"/><line x1="322.148" y1="149.409" x2="231.543" y2="57.749" fill="none" stroke="#fff" stroke-miterlimit="10" stroke-width="0.25"/><line x1="328.33" y1="152" x2="237.725" y2="60.34" fill="none" stroke="#fff" stroke-miterlimit="10" stroke-width="0.25"/></g><path d="M315.294,148.545l-90.6-91.66a25.285,25.285,0,0,1,18.546,7.775l90.6,91.66A25.285,25.285,0,0,0,315.294,148.545Z" fill="none" stroke="#fff" stroke-miterlimit="10" stroke-width="0.25"/></g><path d="M315.294,148.545l-90.6-91.66a25.285,25.285,0,0,1,18.546,7.775l90.6,91.66A25.285,25.285,0,0,0,315.294,148.545Z" fill="none" stroke="#fff" stroke-miterlimit="10" stroke-width="0.25"/></g><g style="isolation:isolate"><g clip-path="url(#f)"><polygon points="333.841 156.32 243.236 64.66 376.19 197.851 466.795 289.51 333.841 156.32" fill="none" stroke="#fff" stroke-miterlimit="10" stroke-width="0.25"/></g><polygon points="333.841 156.32 243.236 64.66 376.19 197.851 466.795 289.51 333.841 156.32" fill="none" stroke="#fff" stroke-miterlimit="10" stroke-width="0.25"/></g><g style="isolation:isolate"><g clip-path="url(#g)"><g style="isolation:isolate"><path d="M466.795,289.51l-90.6-91.66q7.552,7.165,7.59,18.413l90.6,91.66Q474.349,296.675,466.795,289.51Z" fill="none" stroke="#fff" stroke-miterlimit="10" stroke-width="0.25"/><line x1="470.995" y1="294.74" x2="380.39" y2="203.081" fill="none" stroke="#fff" stroke-miterlimit="10" stroke-width="0.25"/><line x1="473.525" y1="300.878" x2="382.921" y2="209.218" fill="none" stroke="#fff" stroke-miterlimit="10" stroke-width="0.25"/><path d="M474.385,307.923l-90.6-91.66a25.3,25.3,0,0,1-7.47,18.619l90.6,91.66A25.3,25.3,0,0,0,474.385,307.923Z" fill="none" stroke="#fff" stroke-miterlimit="10" stroke-width="0.25"/><line x1="473.571" y1="314.903" x2="382.966" y2="223.243" fill="none" stroke="#fff" stroke-miterlimit="10" stroke-width="0.25"/><line x1="471.08" y1="321.11" x2="380.476" y2="229.45" fill="none" stroke="#fff" stroke-miterlimit="10" stroke-width="0.25"/></g><path d="M467.4,290.1q6.952,7.033,6.989,17.823a25.3,25.3,0,0,1-7.47,18.619l-90.6-91.66a25.3,25.3,0,0,0,7.47-18.619q-.035-10.791-6.989-17.823Z" fill="none" stroke="#fff" stroke-miterlimit="10" stroke-width="0.25"/></g><path d="M467.4,290.1q6.952,7.033,6.989,17.823a25.3,25.3,0,0,1-7.47,18.619l-90.6-91.66a25.3,25.3,0,0,0,7.47-18.619q-.035-10.791-6.989-17.823Z" fill="none" stroke="#fff" stroke-miterlimit="10" stroke-width="0.25"/></g><g style="isolation:isolate"><g clip-path="url(#h)"><g style="isolation:isolate"><path d="M466.795,289.51l-90.6-91.66q7.552,7.165,7.59,18.413l90.6,91.66Q474.349,296.675,466.795,289.51Z" fill="none" stroke="#fff" stroke-miterlimit="10" stroke-width="0.25"/></g><path d="M376.792,198.44l90.6,91.66q-.295-.3-.6-.59l-90.6-91.66Q376.5,198.142,376.792,198.44Z" fill="none" stroke="#fff" stroke-miterlimit="10" stroke-width="0.25"/></g><path d="M376.792,198.44l90.6,91.66q-.295-.3-.6-.59l-90.6-91.66Q376.5,198.142,376.792,198.44Z" fill="none" stroke="#fff" stroke-miterlimit="10" stroke-width="0.25"/></g><g style="isolation:isolate"><g clip-path="url(#i)"><polygon points="466.915 326.542 334.824 459.736 244.219 368.076 376.31 234.882 466.915 326.542" fill="none" stroke="#fff" stroke-miterlimit="10" stroke-width="0.25"/></g><polygon points="466.915 326.542 334.824 459.736 244.219 368.076 376.31 234.882 466.915 326.542" fill="none" stroke="#fff" stroke-miterlimit="10" stroke-width="0.25"/></g><g style="isolation:isolate"><g clip-path="url(#j)"><g style="isolation:isolate"><path d="M334.824,459.736l-90.6-91.66a25.916,25.916,0,0,1-18.5,7.569l90.6,91.66A25.916,25.916,0,0,0,334.824,459.736Z" fill="none" stroke="#fff" stroke-miterlimit="10" stroke-width="0.25"/><line x1="329.253" y1="463.94" x2="238.648" y2="372.281" fill="none" stroke="#fff" stroke-miterlimit="10" stroke-width="0.25"/><line x1="323.086" y1="466.464" x2="232.482" y2="374.804" fill="none" stroke="#fff" stroke-miterlimit="10" stroke-width="0.25"/><path d="M316.328,467.3l-90.6-91.66a25.862,25.862,0,0,1-18.348-7.569l90.6,91.66A25.862,25.862,0,0,0,316.328,467.3Z" fill="none" stroke="#fff" stroke-miterlimit="10" stroke-width="0.25"/><line x1="309.674" y1="466.464" x2="219.069" y2="374.804" fill="none" stroke="#fff" stroke-miterlimit="10" stroke-width="0.25"/><line x1="303.558" y1="463.94" x2="212.953" y2="372.281" fill="none" stroke="#fff" stroke-miterlimit="10" stroke-width="0.25"/></g><path d="M334.824,459.736a26.2,26.2,0,0,1-36.845,0l-90.6-91.66a26.2,26.2,0,0,0,36.845,0Z" fill="none" stroke="#fff" stroke-miterlimit="10" stroke-width="0.25"/></g><path d="M334.824,459.736a26.2,26.2,0,0,1-36.845,0l-90.6-91.66a26.2,26.2,0,0,0,36.845,0Z" fill="none" stroke="#fff" stroke-miterlimit="10" stroke-width="0.25"/></g><g style="isolation:isolate"><g clip-path="url(#k)"><polygon points="297.979 459.736 282.663 444.392 192.058 352.733 207.374 368.076 297.979 459.736" fill="none" stroke="#fff" stroke-miterlimit="10" stroke-width="0.25"/></g><polygon points="297.979 459.736 282.663 444.392 192.058 352.733 207.374 368.076 297.979 459.736" fill="none" stroke="#fff" stroke-miterlimit="10" stroke-width="0.25"/></g><g style="isolation:isolate"><g clip-path="url(#l)"><g style="isolation:isolate"><path d="M282.663,444.392l-90.6-91.66a25.55,25.55,0,0,1-7.8-18.619l90.6,91.66A25.55,25.55,0,0,0,282.663,444.392Z" fill="none" stroke="#fff" stroke-miterlimit="10" stroke-width="0.25"/><line x1="278.347" y1="438.867" x2="187.742" y2="347.207" fill="none" stroke="#fff" stroke-miterlimit="10" stroke-width="0.25"/><line x1="275.748" y1="432.66" x2="185.144" y2="341" fill="none" stroke="#fff" stroke-miterlimit="10" stroke-width="0.25"/><path d="M274.867,425.773l-90.6-91.66a25.378,25.378,0,0,1,7.675-18.619l90.6,91.66A25.378,25.378,0,0,0,274.867,425.773Z" fill="none" stroke="#fff" stroke-miterlimit="10" stroke-width="0.25"/><line x1="275.704" y1="418.885" x2="185.099" y2="327.225" fill="none" stroke="#fff" stroke-miterlimit="10" stroke-width="0.25"/><line x1="278.262" y1="412.679" x2="187.657" y2="321.02" fill="none" stroke="#fff" stroke-miterlimit="10" stroke-width="0.25"/></g><path d="M282.663,444.392l-90.6-91.66a26.275,26.275,0,0,1-.121-37.238l90.6,91.66a26.275,26.275,0,0,0,.121,37.238Z" fill="none" stroke="#fff" stroke-miterlimit="10" stroke-width="0.25"/></g><path d="M282.663,444.392l-90.6-91.66a26.275,26.275,0,0,1-.121-37.238l90.6,91.66a26.275,26.275,0,0,0,.121,37.238Z" fill="none" stroke="#fff" stroke-miterlimit="10" stroke-width="0.25"/></g><g style="isolation:isolate"><g clip-path="url(#m)"><polygon points="282.542 407.155 191.938 315.495 251.389 255.547 341.994 347.206 282.542 407.155" fill="none" stroke="#fff" stroke-miterlimit="10" stroke-width="0.25"/></g><polygon points="282.542 407.155 191.938 315.495 251.389 255.547 341.994 347.206 282.542 407.155" fill="none" stroke="#fff" stroke-miterlimit="10" stroke-width="0.25"/></g><g style="isolation:isolate"><g clip-path="url(#n)"><polygon points="341.994 347.206 198.682 347.206 108.077 255.547 251.389 255.547 341.994 347.206" fill="none" stroke="#fff" stroke-miterlimit="10" stroke-width="0.25"/></g><polygon points="341.994 347.206 198.682 347.206 108.077 255.547 251.389 255.547 341.994 347.206" fill="none" stroke="#fff" stroke-miterlimit="10" stroke-width="0.25"/></g><g style="isolation:isolate"><g clip-path="url(#o)"><g style="isolation:isolate"><path d="M198.682,347.206l-90.6-91.66a21.706,21.706,0,0,1-17.224-7.672l90.6,91.66A21.706,21.706,0,0,0,198.682,347.206Z" fill="none" stroke="#fff" stroke-miterlimit="10" stroke-width="0.25"/><path d="M181.458,339.535l-90.6-91.66a27.466,27.466,0,0,1-6.675-18.516l90.6,91.66A27.466,27.466,0,0,0,181.458,339.535Z" fill="none" stroke="#fff" stroke-miterlimit="10" stroke-width="0.25"/><line x1="177.764" y1="334.068" x2="87.159" y2="242.408" fill="none" stroke="#fff" stroke-miterlimit="10" stroke-width="0.25"/><line x1="175.539" y1="327.896" x2="84.935" y2="236.237" fill="none" stroke="#fff" stroke-miterlimit="10" stroke-width="0.25"/></g><path d="M182.574,340.743l-90.6-91.66q-.572-.578-1.117-1.208a27.466,27.466,0,0,1-6.675-18.516l90.6,91.66a27.466,27.466,0,0,0,6.675,18.516Q182,340.165,182.574,340.743Z" fill="none" stroke="#fff" stroke-miterlimit="10" stroke-width="0.25"/></g><path d="M182.574,340.743l-90.6-91.66q-.572-.578-1.117-1.208a27.466,27.466,0,0,1-6.675-18.516l90.6,91.66a27.466,27.466,0,0,0,6.675,18.516Q182,340.165,182.574,340.743Z" fill="none" stroke="#fff" stroke-miterlimit="10" stroke-width="0.25"/></g><g style="isolation:isolate"><g clip-path="url(#p)"><g style="isolation:isolate"><path d="M198.682,347.206l-90.6-91.66a21.706,21.706,0,0,1-17.224-7.672l90.6,91.66A21.706,21.706,0,0,0,198.682,347.206Z" fill="none" stroke="#fff" stroke-miterlimit="10" stroke-width="0.25"/><line x1="192.063" y1="346.354" x2="101.458" y2="254.694" fill="none" stroke="#fff" stroke-miterlimit="10" stroke-width="0.25"/><line x1="186.321" y1="343.797" x2="95.716" y2="252.137" fill="none" stroke="#fff" stroke-miterlimit="10" stroke-width="0.25"/></g><path d="M91.97,249.083a21.705,21.705,0,0,0,16.108,6.464l90.6,91.66a21.705,21.705,0,0,1-16.108-6.464Z" fill="none" stroke="#fff" stroke-miterlimit="10" stroke-width="0.25"/></g><path d="M91.97,249.083a21.705,21.705,0,0,0,16.108,6.464l90.6,91.66a21.705,21.705,0,0,1-16.108-6.464Z" fill="none" stroke="#fff" stroke-miterlimit="10" stroke-width="0.25"/></g><g style="isolation:isolate"><g clip-path="url(#q)"><polygon points="174.782 321.019 84.178 229.359 84.093 203.172 174.697 294.831 174.782 321.019" fill="none" stroke="#fff" stroke-miterlimit="10" stroke-width="0.25"/></g><polygon points="174.782 321.019 84.178 229.359 84.093 203.172 174.697 294.831 174.782 321.019" fill="none" stroke="#fff" stroke-miterlimit="10" stroke-width="0.25"/></g><g style="isolation:isolate"><g clip-path="url(#r)"><g style="isolation:isolate"><path d="M174.7,294.831l-90.6-91.66a27.3,27.3,0,0,1,6.555-18.516l90.6,91.66A27.3,27.3,0,0,0,174.7,294.831Z" fill="none" stroke="#fff" stroke-miterlimit="10" stroke-width="0.25"/><line x1="175.41" y1="287.954" x2="84.805" y2="196.294" fill="none" stroke="#fff" stroke-miterlimit="10" stroke-width="0.25"/><line x1="177.595" y1="281.782" x2="86.99" y2="190.123" fill="none" stroke="#fff" stroke-miterlimit="10" stroke-width="0.25"/><path d="M181.253,276.315l-90.6-91.66a21.56,21.56,0,0,1,17.175-7.672l90.6,91.66A21.56,21.56,0,0,0,181.253,276.315Z" fill="none" stroke="#fff" stroke-miterlimit="10" stroke-width="0.25"/><line x1="186.088" y1="272.053" x2="95.484" y2="180.394" fill="none" stroke="#fff" stroke-miterlimit="10" stroke-width="0.25"/><line x1="191.813" y1="269.496" x2="101.209" y2="177.836" fill="none" stroke="#fff" stroke-miterlimit="10" stroke-width="0.25"/></g><path d="M174.7,294.831l-90.6-91.66a27.3,27.3,0,0,1,6.555-18.516,21.56,21.56,0,0,1,17.175-7.672l90.6,91.66a21.56,21.56,0,0,0-17.175,7.672A27.3,27.3,0,0,0,174.7,294.831Z" fill="none" stroke="#fff" stroke-miterlimit="10" stroke-width="0.25"/></g><path d="M174.7,294.831l-90.6-91.66a27.3,27.3,0,0,1,6.555-18.516,21.56,21.56,0,0,1,17.175-7.672l90.6,91.66a21.56,21.56,0,0,0-17.175,7.672A27.3,27.3,0,0,0,174.7,294.831Z" fill="none" stroke="#fff" stroke-miterlimit="10" stroke-width="0.25"/></g><g style="isolation:isolate"><g clip-path="url(#s)"><polygon points="198.427 268.644 107.823 176.984 251.135 176.984 341.739 268.644 198.427 268.644" fill="none" stroke="#fff" stroke-miterlimit="10" stroke-width="0.25"/></g><polygon points="198.427 268.644 107.823 176.984 251.135 176.984 341.739 268.644 198.427 268.644" fill="none" stroke="#fff" stroke-miterlimit="10" stroke-width="0.25"/></g><g style="isolation:isolate"><g clip-path="url(#t)"><polygon points="341.739 268.644 281.898 208.489 191.294 116.829 251.135 176.984 341.739 268.644" fill="none" stroke="#fff" stroke-miterlimit="10" stroke-width="0.25"/></g><polygon points="341.739 268.644 281.898 208.489 191.294 116.829 251.135 176.984 341.739 268.644" fill="none" stroke="#fff" stroke-miterlimit="10" stroke-width="0.25"/></g><g style="isolation:isolate"><g clip-path="url(#u)"><g style="isolation:isolate"><path d="M281.9,208.489l-90.6-91.66a24.441,24.441,0,0,1-7.8-18.413l90.6,91.66A24.441,24.441,0,0,0,281.9,208.489Z" fill="none" stroke="#fff" stroke-miterlimit="10" stroke-width="0.25"/><line x1="277.583" y1="203.171" x2="186.978" y2="111.511" fill="none" stroke="#fff" stroke-miterlimit="10" stroke-width="0.25"/><line x1="274.985" y1="197.034" x2="184.38" y2="105.374" fill="none" stroke="#fff" stroke-miterlimit="10" stroke-width="0.25"/><path d="M274.1,190.077l-90.6-91.66A24.281,24.281,0,0,1,191.174,80l90.6,91.66A24.281,24.281,0,0,0,274.1,190.077Z" fill="none" stroke="#fff" stroke-miterlimit="10" stroke-width="0.25"/><line x1="274.94" y1="183.12" x2="184.335" y2="91.46" fill="none" stroke="#fff" stroke-miterlimit="10" stroke-width="0.25"/><line x1="277.498" y1="176.982" x2="186.893" y2="85.322" fill="none" stroke="#fff" stroke-miterlimit="10" stroke-width="0.25"/></g><path d="M281.252,207.856l-90.6-91.66a24.419,24.419,0,0,1-7.149-17.78A24.281,24.281,0,0,1,191.174,80l90.6,91.66a25.8,25.8,0,0,0-.527,36.192Z" fill="none" stroke="#fff" stroke-miterlimit="10" stroke-width="0.25"/></g><path d="M281.252,207.856l-90.6-91.66a24.419,24.419,0,0,1-7.149-17.78A24.281,24.281,0,0,1,191.174,80l90.6,91.66a25.8,25.8,0,0,0-.527,36.192Z" fill="none" stroke="#fff" stroke-miterlimit="10" stroke-width="0.25"/></g><g style="isolation:isolate"><g clip-path="url(#v)"><g style="isolation:isolate"><path d="M281.9,208.489l-90.6-91.66a24.441,24.441,0,0,1-7.8-18.413l90.6,91.66A24.441,24.441,0,0,0,281.9,208.489Z" fill="none" stroke="#fff" stroke-miterlimit="10" stroke-width="0.25"/></g><path d="M190.647,116.2q.316.32.646.633l90.6,91.66q-.33-.313-.646-.633Z" fill="none" stroke="#fff" stroke-miterlimit="10" stroke-width="0.25"/></g><path d="M190.647,116.2q.316.32.646.633l90.6,91.66q-.33-.313-.646-.633Z" fill="none" stroke="#fff" stroke-miterlimit="10" stroke-width="0.25"/></g><g style="isolation:isolate"><g clip-path="url(#w)"><polygon points="281.779 171.664 191.174 80.004 206.391 64.66 296.996 156.32 281.779 171.664" fill="none" stroke="#fff" stroke-miterlimit="10" stroke-width="0.25"/></g><polygon points="281.779 171.664 191.174 80.004 206.391 64.66 296.996 156.32 281.779 171.664" fill="none" stroke="#fff" stroke-miterlimit="10" stroke-width="0.25"/></g><g style="isolation:isolate"><g clip-path="url(#x)"><g style="isolation:isolate"><path d="M297,156.32l-90.6-91.66a24.9,24.9,0,0,1,18.3-7.775l90.6,91.66A24.9,24.9,0,0,0,297,156.32Z" fill="none" stroke="#fff" stroke-miterlimit="10" stroke-width="0.25"/><line x1="302.456" y1="152" x2="211.852" y2="60.34" fill="none" stroke="#fff" stroke-miterlimit="10" stroke-width="0.25"/><line x1="308.556" y1="149.409" x2="217.951" y2="57.749" fill="none" stroke="#fff" stroke-miterlimit="10" stroke-width="0.25"/></g><path d="M297,156.32l-90.6-91.66a24.9,24.9,0,0,1,18.3-7.775l90.6,91.66A24.9,24.9,0,0,0,297,156.32Z" fill="none" stroke="#fff" stroke-miterlimit="10" stroke-width="0.25"/></g><path d="M297,156.32l-90.6-91.66a24.9,24.9,0,0,1,18.3-7.775l90.6,91.66A24.9,24.9,0,0,0,297,156.32Z" fill="none" stroke="#fff" stroke-miterlimit="10" stroke-width="0.25"/></g></g></g></svg>